<svg width="48" height="48" viewBox="0 0 48 48" fill="none" xmlns="http://www.w3.org/2000/svg">
<rect x="0.75" y="0.75" width="46.5" height="46.5" rx="23.25" fill="#AEBE89" stroke="#AEBE89" stroke-width="1.5"/>
<path fill-rule="evenodd" clip-rule="evenodd" d="M31.086 15.9065C29.2059 14.0332 26.7056 13.0011 24.0418 13C18.5529 13 14.0857 17.4457 14.0835 22.9098C14.0828 24.6565 14.5413 26.3616 15.4128 27.8645L14 33L19.279 31.6218C20.7336 32.4115 22.3712 32.8276 24.0378 32.8281H24.0419C29.5302 32.8281 33.9979 28.3821 34 22.9177C34.0011 20.2695 32.9662 17.7797 31.086 15.9065ZM24.0418 31.1544H24.0384C22.5533 31.1538 21.0967 30.7566 19.8257 30.0062L19.5236 29.8276L16.391 30.6455L17.2271 27.6058L17.0302 27.2942C16.2017 25.9827 15.7642 24.4668 15.7649 22.9104C15.7666 18.3688 19.4797 14.6738 24.0451 14.6738C26.2559 14.6746 28.3341 15.5325 29.8967 17.0895C31.4594 18.6465 32.3195 20.7161 32.3187 22.9171C32.3168 27.4591 28.6039 31.1544 24.0418 31.1544ZM28.5819 24.9851C28.3331 24.8611 27.1097 24.2622 26.8816 24.1794C26.6537 24.0968 26.4876 24.0557 26.3219 24.3035C26.1559 24.5513 25.6792 25.1091 25.534 25.2743C25.3887 25.4396 25.2437 25.4603 24.9949 25.3363C24.746 25.2124 23.9443 24.9508 22.9938 24.1072C22.2542 23.4506 21.7549 22.6396 21.6097 22.3918C21.4647 22.1438 21.6084 22.0227 21.7188 21.8865C21.9882 21.5536 22.2579 21.2046 22.3408 21.0394C22.4239 20.8741 22.3823 20.7295 22.32 20.6056C22.2579 20.4817 21.7603 19.2628 21.553 18.7668C21.3508 18.2842 21.1459 18.3494 20.9931 18.3418C20.8481 18.3346 20.6821 18.3331 20.5162 18.3331C20.3503 18.3331 20.0807 18.395 19.8526 18.6431C19.6246 18.891 18.9818 19.49 18.9818 20.7089C18.9818 21.9277 19.8734 23.1052 19.9978 23.2705C20.1222 23.4358 21.7524 25.937 24.2484 27.0095C24.842 27.2649 25.3054 27.4171 25.6669 27.5312C26.263 27.7197 26.8053 27.6931 27.2341 27.6294C27.7122 27.5582 28.7061 27.0303 28.9136 26.4519C29.1209 25.8734 29.1209 25.3777 29.0586 25.2743C28.9966 25.171 28.8306 25.1091 28.5819 24.9851Z" fill="white"/>
</svg>
