<svg width="48" height="48" viewBox="0 0 48 48" fill="none" xmlns="http://www.w3.org/2000/svg">
<rect x="0.75" y="0.75" width="46.5" height="46.5" rx="23.25" fill="#AEBE89" stroke="#AEBE89" stroke-width="1.5"/>
<path fill-rule="evenodd" clip-rule="evenodd" d="M18.9706 15H29.0294C31.2189 15 33 16.7811 33 18.9706V29.0294C33 31.2189 31.2189 33 29.0294 33H18.9706C16.7811 33 15 31.2189 15 29.0294V18.9706C15 16.7811 16.7811 15 18.9706 15ZM19.0368 24C19.0368 26.7368 21.2632 28.9632 24 28.9632C26.7368 28.9632 28.9632 26.7368 28.9632 24C28.9632 21.2632 26.7368 19.0368 24 19.0368C21.2632 19.0368 19.0368 21.2632 19.0368 24ZM28.6985 18.3088C28.6985 18.8571 29.1429 19.3015 29.6912 19.3015C30.2395 19.3015 30.6838 18.8571 30.6838 18.3088C30.6838 17.7605 30.2395 17.3162 29.6912 17.3162C29.1429 17.3162 28.6985 17.7605 28.6985 18.3088ZM24.0001 26.9786C25.6447 26.9786 26.978 25.6452 26.978 24.0006C26.978 22.3561 25.6447 21.0227 24.0001 21.0227C22.3555 21.0227 21.0222 22.3561 21.0222 24.0006C21.0222 25.6452 22.3555 26.9786 24.0001 26.9786Z" fill="white"/>
</svg>
