<svg width="48" height="48" viewBox="0 0 48 48" fill="none" xmlns="http://www.w3.org/2000/svg">
<rect x="0.75" y="0.75" width="46.5" height="46.5" rx="23.25" stroke="#AEBE89" stroke-width="1.5"/>
<path d="M33 24C33 19.0289 28.9711 15 24 15C19.0289 15 15 19.0289 15 24C15 28.9711 19.0289 33 24 33C24.0527 33 24.1055 33 24.1582 32.9965V25.9934H22.2246V23.7398H24.1582V22.0805C24.1582 20.1574 25.3324 19.1098 27.048 19.1098C27.8707 19.1098 28.5773 19.1695 28.7812 19.1977V21.2086H27.6C26.6684 21.2086 26.4855 21.6516 26.4855 22.302V23.7363H28.718L28.4262 25.9898H26.4855V32.652C30.2473 31.5727 33 28.1098 33 24Z" fill="#AEBE89"/>
</svg>
