<svg width="48" height="48" viewBox="0 0 48 48" fill="none" xmlns="http://www.w3.org/2000/svg">
<rect x="0.75" y="0.75" width="46.5" height="46.5" rx="23.25" stroke="#AEBE89" stroke-width="1.5"/>
<path d="M31.2124 25.6296C31.8751 26.3159 32.5762 26.9618 33.1711 27.7191C33.4347 28.0541 33.6831 28.4004 33.8722 28.79C34.1422 29.3455 33.8984 29.9547 33.4294 29.9877L30.5165 29.9871C29.7642 30.0531 29.1655 29.7314 28.6607 29.1861C28.2578 28.7515 27.884 28.2872 27.4959 27.8378C27.3374 27.6534 27.1704 27.4797 26.9714 27.3431C26.5743 27.0692 26.2293 27.1531 26.0018 27.5929C25.7699 28.0405 25.717 28.5365 25.6948 29.0346C25.6631 29.7629 25.456 29.9532 24.7668 29.9874C23.2942 30.0605 21.8969 29.8237 20.5983 29.0365C19.4527 28.3421 18.566 27.3622 17.7933 26.2527C16.2887 24.0898 15.1363 21.7159 14.101 19.2739C13.8679 18.7239 14.0384 18.4297 14.6107 18.4183C15.5614 18.3988 16.5121 18.4013 17.4628 18.4173C17.8497 18.4238 18.1057 18.6585 18.2544 19.0457C18.7681 20.3859 19.398 21.661 20.1872 22.8437C20.3976 23.1586 20.6123 23.4726 20.918 23.695C21.2555 23.9405 21.5126 23.8594 21.6718 23.4599C21.7736 23.2061 21.8175 22.9346 21.8396 22.6626C21.9153 21.7307 21.9243 20.7992 21.7934 19.8711C21.7119 19.2903 21.4038 18.9152 20.8578 18.8054C20.5797 18.7495 20.6204 18.6403 20.7557 18.4719C20.9904 18.1808 21.2104 18.0006 21.65 18.0006L24.9411 18C25.4598 18.108 25.5762 18.3547 25.6466 18.9087L25.6495 22.7866C25.6434 23.001 25.751 23.6364 26.1141 23.7767C26.405 23.8785 26.597 23.6311 26.7709 23.4359C27.5602 22.5478 28.1225 21.4997 28.6261 20.4149C28.8484 19.9365 29.0401 19.4414 29.2263 18.9454C29.3648 18.5787 29.58 18.3982 29.9704 18.4044L33.1397 18.4084C33.2331 18.4084 33.3279 18.4093 33.4204 18.4263C33.9545 18.5231 34.1009 18.7668 33.9356 19.3193C33.6756 20.1872 33.1702 20.9103 32.6763 21.6351C32.1468 22.4112 31.5821 23.1601 31.0579 23.9396C30.5761 24.6521 30.6142 25.0108 31.2124 25.6296Z" fill="#AEBE89"/>
</svg>
