<svg width="223" height="79" viewBox="0 0 223 79" fill="none" xmlns="http://www.w3.org/2000/svg">
<path d="M24.3764 0C26.4078 0 28.5054 0.19886 30.6693 0.596584C32.8331 0.950116 34.5554 1.45832 35.836 2.12119C36.1893 2.29796 36.4101 2.49682 36.4984 2.71778C36.6309 2.89454 36.7413 3.22598 36.8296 3.71208L37.5583 11.7328C37.5583 11.8654 37.4478 11.9538 37.227 11.998C37.0062 11.998 36.8738 11.9317 36.8296 11.7991C35.6814 8.35219 33.8046 5.78908 31.1992 4.10981C28.5937 2.38634 25.4584 1.5246 21.7931 1.5246C18.5694 1.5246 15.7652 2.27586 13.3805 3.77837C10.9959 5.23669 9.16324 7.31369 7.8826 10.0094C6.64611 12.705 6.02787 15.8205 6.02787 19.3559C6.02787 23.4657 6.82275 27.244 8.41252 30.691C10.0023 34.1379 12.1441 36.8778 14.8378 38.9106C17.5758 40.8992 20.5566 41.8935 23.7803 41.8935C30.1393 41.8935 34.6878 38.2477 37.4258 30.9561C37.4258 30.8235 37.5141 30.7573 37.6907 30.7573C37.8232 30.7573 37.9336 30.7794 38.0219 30.8235C38.1544 30.8677 38.2206 30.934 38.2206 31.0224L37.2933 39.0432C37.205 39.5735 37.0946 39.927 36.9621 40.1038C36.8738 40.2363 36.6309 40.391 36.2334 40.5678C32.1707 42.1587 28.0196 42.9541 23.7803 42.9541C18.4369 42.9541 13.9767 41.8935 10.3997 39.7723C6.82275 37.6069 4.19522 34.8671 2.51713 31.5527C0.839044 28.2383 0 24.7693 0 21.1456C0 17.0358 1.12609 13.39 3.37825 10.2082C5.67459 6.98225 8.67748 4.48544 12.3869 2.71778C16.1406 0.905926 20.137 0 24.3764 0Z" fill="#AEBE89"/>
<path d="M60.4738 28.0395C65.5522 28.5256 68.0914 30.5363 68.0914 34.0716C68.0914 36.458 67.1199 38.4245 65.1768 39.9712C63.2779 41.5179 60.827 42.2912 57.8242 42.2912C57.1618 42.2912 55.9032 42.247 54.0485 42.1587C51.9288 42.0703 50.4273 42.0261 49.5441 42.0261L45.9671 42.0924C45.3047 42.1366 44.3774 42.1587 43.1851 42.1587C43.0526 42.1587 42.9863 42.0261 42.9863 41.7609C42.9863 41.4958 43.0526 41.3632 43.1851 41.3632C44.3774 41.3632 45.2385 41.2527 45.7684 41.0318C46.3425 40.8108 46.7179 40.391 46.8945 39.7723C47.1153 39.1094 47.2257 38.1151 47.2257 36.7894V21.9411C47.2257 20.6153 47.1153 19.6431 46.8945 19.0244C46.7179 18.3616 46.3425 17.9196 45.7684 17.6987C45.2385 17.4777 44.3995 17.3672 43.2513 17.3672C43.1188 17.3672 43.0526 17.2347 43.0526 16.9695C43.0526 16.7044 43.1188 16.5718 43.2513 16.5718L49.5441 16.6381L53.0549 16.5718C54.7329 16.4834 55.9915 16.4392 56.8305 16.4392C59.5685 16.4392 61.6661 16.859 63.1234 17.6987C64.5807 18.5383 65.3093 19.7978 65.3093 21.477C65.3093 22.626 64.9119 23.7308 64.117 24.7914C63.3221 25.852 62.1077 26.9347 60.4738 28.0395ZM55.1745 17.4998C54.203 17.4998 53.4744 17.6103 52.9886 17.8313C52.547 18.0522 52.2158 18.4941 51.995 19.157C51.8184 19.7757 51.73 20.7479 51.73 22.0736V27.9732H58.2216H58.884C59.8555 26.7358 60.3413 25.1228 60.3413 23.1342C60.3413 21.1456 59.9218 19.7094 59.0827 18.8256C58.2437 17.9417 56.9409 17.4998 55.1745 17.4998ZM56.6318 41.0981C60.8712 41.0981 62.9909 39.242 62.9909 35.5299C62.9909 33.5413 62.4168 31.9725 61.2686 30.8235C60.1205 29.6746 58.332 29.1001 55.9032 29.1001H51.73V36.7894C51.73 38.3803 52.0612 39.5072 52.7237 40.17C53.3861 40.7887 54.6888 41.0981 56.6318 41.0981Z" fill="#AEBE89"/>
<path d="M102.958 41.3632C103.046 41.3632 103.09 41.4958 103.09 41.7609C103.09 42.0261 103.046 42.1587 102.958 42.1587C101.765 42.1587 100.838 42.1366 100.176 42.0924L96.731 42.0261L93.0878 42.0924C92.4254 42.1366 91.5201 42.1587 90.3719 42.1587C90.2395 42.1587 90.1732 42.0261 90.1732 41.7609C90.1732 41.4958 90.2395 41.3632 90.3719 41.3632C91.5643 41.3632 92.4254 41.2527 92.9553 41.0318C93.5294 40.8108 93.9047 40.391 94.0814 39.7723C94.3022 39.1094 94.4126 38.1151 94.4126 36.7894V23.6645L81.0983 36.9883C81.0983 38.2698 81.1866 39.2199 81.3633 39.8386C81.5841 40.4131 81.9815 40.8108 82.5556 41.0318C83.1297 41.2527 83.9908 41.3632 85.139 41.3632C85.2273 41.3632 85.2714 41.4958 85.2714 41.7609C85.2714 42.0261 85.2273 42.1587 85.139 42.1587C83.9466 42.1587 83.0193 42.1366 82.3569 42.0924L78.9124 42.0261L75.3354 42.0924C74.673 42.1366 73.7456 42.1587 72.5533 42.1587C72.4208 42.1587 72.3546 42.0261 72.3546 41.7609C72.3546 41.4958 72.4208 41.3632 72.5533 41.3632C73.7456 41.3632 74.6068 41.2527 75.1367 41.0318C75.7108 40.8108 76.0861 40.391 76.2627 39.7723C76.4836 39.1094 76.594 38.1151 76.594 36.7894V21.9411C76.594 20.6153 76.4836 19.6431 76.2627 19.0244C76.0861 18.3616 75.7108 17.9196 75.1367 17.6987C74.6068 17.4777 73.7677 17.3672 72.6195 17.3672C72.4871 17.3672 72.4208 17.2347 72.4208 16.9695C72.4208 16.7044 72.4871 16.5718 72.6195 16.5718C73.7677 16.5718 74.673 16.5939 75.3354 16.6381L78.9124 16.7044L82.4231 16.6381C83.0855 16.5939 83.9908 16.5718 85.139 16.5718C85.2273 16.5718 85.2714 16.7044 85.2714 16.9695C85.2714 17.2347 85.2273 17.3672 85.139 17.3672C83.9466 17.3672 83.0634 17.4998 82.4893 17.765C81.9594 18.0301 81.5841 18.4941 81.3633 19.157C81.1866 19.7757 81.0983 20.7479 81.0983 22.0736V34.9996L94.4126 21.6759C94.4126 20.4386 94.3022 19.5326 94.0814 18.9581C93.9047 18.3395 93.5294 17.9196 92.9553 17.6987C92.4254 17.4777 91.5863 17.3672 90.4382 17.3672C90.3057 17.3672 90.2395 17.2347 90.2395 16.9695C90.2395 16.7044 90.3057 16.5718 90.4382 16.5718C91.5863 16.5718 92.4916 16.5939 93.154 16.6381L96.731 16.7044L100.242 16.6381C100.904 16.5939 101.809 16.5718 102.958 16.5718C103.046 16.5718 103.09 16.7044 103.09 16.9695C103.09 17.2347 103.046 17.3672 102.958 17.3672C101.765 17.3672 100.882 17.4998 100.308 17.765C99.7781 18.0301 99.4027 18.4941 99.1819 19.157C99.0053 19.7757 98.9169 20.7479 98.9169 22.0736V36.7894C98.9169 38.1151 99.0053 39.1094 99.1819 39.7723C99.4027 40.391 99.7781 40.8108 100.308 41.0318C100.882 41.2527 101.765 41.3632 102.958 41.3632Z" fill="#AEBE89"/>
<path d="M125.841 15.7101C127.696 15.7101 129.396 16.1962 130.942 17.1684C132.531 18.1406 133.79 19.5547 134.717 21.4108C135.689 23.2668 136.175 25.4322 136.175 27.9069C136.175 31.3096 135.424 34.16 133.922 36.458C132.421 38.7117 130.566 40.3689 128.358 41.4295C126.15 42.4901 123.942 43.0204 121.734 43.0204C120.453 43.0204 119.305 42.9099 118.29 42.6889C117.318 42.5122 116.28 42.1808 115.176 41.6946V52.6307C115.176 53.9565 115.331 54.9287 115.64 55.5474C115.993 56.1661 116.589 56.5859 117.429 56.8068C118.312 57.072 119.681 57.2046 121.535 57.2046C121.668 57.2046 121.734 57.3371 121.734 57.6023C121.734 57.8674 121.668 58 121.535 58C119.99 58 118.775 57.9779 117.892 57.9337L112.924 57.8674L108.95 57.9337C108.287 57.9779 107.36 58 106.168 58C106.079 58 106.035 57.8674 106.035 57.6023C106.035 57.3371 106.079 57.2046 106.168 57.2046C107.448 57.2046 108.398 57.072 109.016 56.8068C109.678 56.5859 110.12 56.1661 110.341 55.5474C110.562 54.9287 110.672 53.9565 110.672 52.6307V21.9411C110.672 20.085 110.319 18.8698 109.612 18.2953C108.906 17.6766 107.537 17.3672 105.505 17.3672C105.373 17.3672 105.307 17.2347 105.307 16.9695C105.307 16.7044 105.373 16.5718 105.505 16.5718H113.852C114.381 16.5718 114.735 16.6823 114.911 16.9032C115.088 17.1242 115.176 17.5661 115.176 18.229V20.9468C117.031 19.1349 118.82 17.8092 120.542 16.9695C122.264 16.1299 124.03 15.7101 125.841 15.7101ZM123.523 41.5621C125.819 41.5621 127.652 40.5678 129.021 38.5791C130.434 36.5463 131.14 33.6739 131.14 29.9618C131.14 26.3823 130.323 23.5982 128.689 21.6096C127.1 19.621 125.068 18.6267 122.595 18.6267C121.138 18.6267 119.813 18.936 118.621 19.5547C117.473 20.1734 116.325 21.0793 115.176 22.2725V37.5848C116.28 38.8664 117.473 39.8607 118.753 40.5678C120.034 41.2306 121.624 41.5621 123.523 41.5621Z" fill="#AEBE89"/>
<path d="M163.06 38.2477C163.193 38.2477 163.303 38.3361 163.392 38.5129C163.524 38.6454 163.546 38.778 163.458 38.9106C161.912 40.3247 160.322 41.3632 158.688 42.0261C157.099 42.6448 155.376 42.9541 153.522 42.9541C150.872 42.9541 148.576 42.3796 146.633 41.2306C144.734 40.0375 143.277 38.4687 142.261 36.5242C141.289 34.5798 140.804 32.4807 140.804 30.227C140.804 27.6197 141.422 25.2333 142.658 23.0679C143.939 20.8584 145.683 19.1349 147.891 17.8975C150.143 16.616 152.616 15.9752 155.31 15.9752C157.783 15.9752 159.704 16.5718 161.073 17.765C162.442 18.9139 163.127 20.5048 163.127 22.5376C163.127 23.6424 162.884 24.1948 162.398 24.1948H159.218L146.169 24.3274C145.992 25.2112 145.904 26.2939 145.904 27.5755C145.904 31.3759 146.809 34.4472 148.62 36.7894C150.475 39.1315 153.014 40.3026 156.238 40.3026C158.799 40.3026 161.051 39.6176 162.994 38.2477H163.06ZM152.992 17.301C151.358 17.301 149.967 17.8313 148.819 18.8918C147.67 19.9083 146.854 21.3666 146.368 23.2668L157.761 23.0017C157.717 21.234 157.275 19.842 156.436 18.8256C155.597 17.8092 154.449 17.301 152.992 17.301Z" fill="#AEBE89"/>
<path d="M169.428 42.6889C167.353 42.6889 166.315 41.8714 166.315 40.2363C166.315 39.4409 166.536 38.8443 166.977 38.4466C167.419 38.0047 167.971 37.7837 168.633 37.7837C168.898 37.7837 169.229 37.8279 169.627 37.9163C170.068 38.0047 170.4 38.0488 170.62 38.0488C172.034 38.0488 173.226 37.1429 174.197 35.3311C175.213 33.5192 175.964 31.2876 176.45 28.6361C176.98 25.9404 177.245 23.3773 177.245 20.9468C177.245 19.4884 176.913 18.5383 176.251 18.0964C175.633 17.6545 174.374 17.3893 172.475 17.301C172.343 17.301 172.277 17.1684 172.277 16.9032C172.277 16.6381 172.343 16.5055 172.475 16.5055L183.14 16.5718H194.666C194.798 16.5718 194.864 16.7044 194.864 16.9695C194.864 17.2347 194.798 17.3672 194.666 17.3672C193.473 17.4114 192.612 17.544 192.082 17.765C191.552 17.9859 191.177 18.4057 190.956 19.0244C190.78 19.6431 190.691 20.6595 190.691 22.0736V36.7894C190.691 38.2035 190.78 39.2199 190.956 39.8386C191.177 40.4131 191.53 40.8108 192.016 41.0318C192.546 41.2085 193.429 41.319 194.666 41.3632C194.798 41.3632 194.864 41.4958 194.864 41.7609C194.864 42.0261 194.798 42.1587 194.666 42.1587C193.518 42.1587 192.634 42.1366 192.016 42.0924L188.505 42.0261L184.796 42.0924C184.134 42.1366 183.25 42.1587 182.146 42.1587C182.014 42.1587 181.948 42.0261 181.948 41.7609C181.948 41.4958 182.014 41.3632 182.146 41.3632C183.383 41.319 184.266 41.2085 184.796 41.0318C185.326 40.8108 185.679 40.4131 185.856 39.8386C186.077 39.2199 186.187 38.2035 186.187 36.7894V21.9411C186.187 20.4386 186.143 19.4442 186.054 18.9581C185.966 18.472 185.745 18.1627 185.392 18.0301C185.083 17.8975 184.421 17.8313 183.405 17.8313H182.809C181.661 17.8313 180.844 17.9417 180.358 18.1627C179.916 18.3395 179.607 18.693 179.43 19.2233C179.254 19.7094 179.099 20.5932 178.967 21.8748L178.834 23.2005C178.437 26.9126 177.951 30.0944 177.377 32.7459C176.847 35.3532 175.942 37.6732 174.661 39.706C173.381 41.6946 171.636 42.6889 169.428 42.6889Z" fill="#AEBE89"/>
<path d="M213.793 27.1115C219.931 27.1115 223 29.4094 223 34.0053C223 36.4359 222.117 38.4245 220.35 39.9712C218.584 41.5179 216.31 42.2912 213.528 42.2912C212.865 42.2912 211.607 42.247 209.752 42.1587C207.632 42.0703 206.131 42.0261 205.248 42.0261L201.671 42.0924C201.008 42.1366 200.081 42.1587 198.889 42.1587C198.756 42.1587 198.69 42.0261 198.69 41.7609C198.69 41.4958 198.756 41.3632 198.889 41.3632C200.081 41.3632 200.942 41.2527 201.472 41.0318C202.046 40.8108 202.421 40.391 202.598 39.7723C202.819 39.1094 202.929 38.1151 202.929 36.7894V21.9411C202.929 20.6153 202.819 19.6431 202.598 19.0244C202.421 18.3616 202.046 17.9196 201.472 17.6987C200.942 17.4777 200.103 17.3672 198.955 17.3672C198.822 17.3672 198.756 17.2347 198.756 16.9695C198.756 16.7044 198.822 16.5718 198.955 16.5718C200.103 16.5718 201.008 16.5939 201.671 16.6381L205.248 16.7044L209.156 16.6381C209.907 16.5939 210.922 16.5718 212.203 16.5718C212.335 16.5718 212.402 16.7044 212.402 16.9695C212.402 17.2347 212.335 17.3672 212.203 17.3672C210.79 17.3672 209.752 17.4998 209.09 17.765C208.427 18.0301 207.986 18.4941 207.765 19.157C207.544 19.7757 207.434 20.7479 207.434 22.0736V27.9069C209.2 27.3766 211.32 27.1115 213.793 27.1115ZM212.203 41.2969C216.089 41.2969 218.032 39.3525 218.032 35.4636C218.032 33.2541 217.502 31.5306 216.442 30.2932C215.382 29.0117 213.726 28.3709 211.474 28.3709C209.973 28.3709 208.626 28.5698 207.434 28.9675V36.7894C207.434 38.4245 207.765 39.5956 208.427 40.3026C209.09 40.9655 210.348 41.2969 212.203 41.2969Z" fill="#AEBE89"/>
<path d="M5.84083 76.9409C7.56573 76.9409 8.67856 76.2727 9.70794 75.2773L9.22107 74.8136C8.23343 75.7682 7.27361 76.3 5.86865 76.3C3.54561 76.3 1.75116 74.4182 1.75116 72.0045C1.75116 69.5773 3.51779 67.7091 5.85474 67.7091C7.31534 67.7091 8.28907 68.3091 9.13761 69.1136L9.61056 68.6364C8.60901 67.7364 7.60746 67.0682 5.86865 67.0682C3.05875 67.0682 1 69.3045 1 72.0045C1 74.7727 3.05875 76.9409 5.84083 76.9409Z" fill="#2F2F2F"/>
<path d="M13.3286 76.7773H14.0102V70.4227H16.6671V69.8227H10.6717V70.4227H13.3286V76.7773Z" fill="#2F2F2F"/>
<path d="M19.2434 79C20.2589 79 20.9822 78.4818 21.6082 77.0227L24.6824 69.8227H23.9312L21.3717 76.0409L18.4227 69.8227H17.6298L21.0379 76.7364C20.5093 77.95 20.0224 78.3727 19.2852 78.3727C18.7566 78.3727 18.4505 78.2909 18.075 78.1136L17.8385 78.7C18.3114 78.9045 18.7009 79 19.2434 79Z" fill="#2F2F2F"/>
<path d="M25.4599 78.7409H26.0302L26.1693 76.7773H32.6377V78.7409H33.1941L33.3332 76.1773H32.1925V69.8227H27.4352V71.2955C27.4352 73.6136 27.0178 75.1682 26.3919 76.1773H25.4599V78.7409ZM27.143 76.1773C27.6995 75.25 28.089 73.5318 28.089 71.6773V70.4227H31.5109V76.1773H27.143Z" fill="#2F2F2F"/>
<path d="M35.0491 76.7773H35.7307L40.5437 70.7091V76.7773H41.2253V69.8227H40.5437L35.7307 75.8909V69.8227H35.0491V76.7773Z" fill="#2F2F2F"/>
<path d="M43.2407 76.7773H44.0753L46.1897 74.1045H48.5266V76.7773H49.2083V69.8227H46.0367C44.4092 69.8227 43.4354 70.6682 43.4354 71.8955C43.4354 73.0545 44.3535 73.8045 45.4803 74.0091L43.2407 76.7773ZM46.1619 73.5045C45.0212 73.5045 44.1727 72.9045 44.1727 71.9364C44.1727 71.0227 44.896 70.4227 46.1341 70.4227H48.5266V73.5045H46.1619Z" fill="#2F2F2F"/>
<path d="M55.51 76.8864C56.8176 76.8864 57.68 76.3682 57.694 70.6136V70.4227H61.1855V76.7773H61.8671V69.8227H57.0402V70.1909C57.0123 75.85 56.3446 76.2591 55.3987 76.2591C55.2596 76.2591 54.9536 76.1909 54.8562 76.1636L54.731 76.7773C54.9258 76.8318 55.2874 76.8864 55.51 76.8864Z" fill="#2F2F2F"/>
<path d="M66.6154 76.9409C67.9647 76.9409 68.8411 76.2864 69.328 75.6182V76.7773H69.9957V72.4409C69.9957 71.5818 69.7453 70.9409 69.2723 70.4773C68.7576 69.9727 67.9926 69.7136 67.0327 69.7136C66.059 69.7136 65.2939 69.9591 64.515 70.3136L64.7653 70.9C65.4191 70.5727 66.1286 70.3409 66.991 70.3409C68.4516 70.3409 69.328 71.0636 69.328 72.4682V72.7682C68.6464 72.5909 67.9648 72.4682 66.9771 72.4682C65.1409 72.4682 63.8751 73.2864 63.8751 74.7318C63.8751 76.2045 65.1548 76.9409 66.6154 76.9409ZM66.6572 76.3136C65.4331 76.3136 64.6123 75.7273 64.6123 74.7182C64.6123 73.7227 65.4331 73.0682 66.9354 73.0682C67.9508 73.0682 68.7437 73.2318 69.3419 73.3818V74.1727C69.3419 75.4409 68.1039 76.3136 66.6572 76.3136Z" fill="#2F2F2F"/>
<path d="M72.447 76.7773H73.1286V73.5182H77.8442V76.7773H78.5258V69.8227H77.8442V72.9182H73.1286V69.8227H72.447V76.7773Z" fill="#2F2F2F"/>
<path d="M80.0149 78.7409H80.5852L80.7243 76.7773H87.1927V78.7409H87.7491L87.8882 76.1773H86.7475V69.8227H81.9902V71.2955C81.9902 73.6136 81.5729 75.1682 80.9469 76.1773H80.0149V78.7409ZM81.6981 76.1773C82.2545 75.25 82.644 73.5318 82.644 71.6773V70.4227H86.0659V76.1773H81.6981Z" fill="#2F2F2F"/>
<path d="M89.6041 76.7773H99.4944V69.8227H98.8128V76.1773H94.89V69.8227H94.2084V76.1773H90.2857V69.8227H89.6041V76.7773Z" fill="#2F2F2F"/>
<path d="M104.244 76.9409C105.594 76.9409 106.47 76.2864 106.957 75.6182V76.7773H107.624V72.4409C107.624 71.5818 107.374 70.9409 106.901 70.4773C106.386 69.9727 105.621 69.7136 104.662 69.7136C103.688 69.7136 102.923 69.9591 102.144 70.3136L102.394 70.9C103.048 70.5727 103.757 70.3409 104.62 70.3409C106.08 70.3409 106.957 71.0636 106.957 72.4682V72.7682C106.275 72.5909 105.594 72.4682 104.606 72.4682C102.77 72.4682 101.504 73.2864 101.504 74.7318C101.504 76.2045 102.784 76.9409 104.244 76.9409ZM104.286 76.3136C103.062 76.3136 102.241 75.7273 102.241 74.7182C102.241 73.7227 103.062 73.0682 104.564 73.0682C105.58 73.0682 106.373 73.2318 106.971 73.3818V74.1727C106.971 75.4409 105.733 76.3136 104.286 76.3136Z" fill="#2F2F2F"/>
<path d="M114.388 78.9591H115.07V76.15C115.556 76.5727 116.002 76.9409 116.948 76.9409C118.659 76.9409 119.841 75.5636 119.841 73.3C119.841 71.0091 118.659 69.6591 116.948 69.6591C116.071 69.6591 115.556 70.0273 115.07 70.4773V67.2318H114.388V70.4773C113.887 70.0273 113.373 69.6591 112.51 69.6591C110.799 69.6591 109.617 71.0091 109.617 73.2727C109.617 75.5636 110.799 76.9409 112.51 76.9409C113.359 76.9409 113.887 76.5727 114.388 76.15V78.9591ZM112.58 76.3C111.036 76.3 110.354 75.1955 110.354 73.3273C110.354 71.4727 111.091 70.3 112.58 70.3C113.317 70.3 113.887 70.6 114.388 71.1318V75.4682C113.887 76 113.317 76.3 112.58 76.3ZM116.878 76.3C116.141 76.3 115.57 76 115.07 75.4682V71.1318C115.57 70.6 116.141 70.3 116.878 70.3C118.366 70.3 119.104 71.4727 119.104 73.3C119.104 75.1955 118.422 76.3 116.878 76.3Z" fill="#2F2F2F"/>
<path d="M123.756 76.7773H124.438V70.4227H127.095V69.8227H121.099V70.4227H123.756V76.7773Z" fill="#2F2F2F"/>
<path d="M128.809 76.7773H129.49V73.5182H134.206V76.7773H134.888V69.8227H134.206V72.9182H129.49V69.8227H128.809V76.7773Z" fill="#2F2F2F"/>
<path d="M140.619 76.9409C142.734 76.9409 144.278 75.25 144.278 73.3C144.278 71.3227 142.748 69.6591 140.647 69.6591C138.533 69.6591 136.989 71.35 136.989 73.3C136.989 75.2773 138.519 76.9409 140.619 76.9409ZM140.647 76.3136C139.006 76.3136 137.726 74.9773 137.726 73.3C137.726 71.6364 139.02 70.2864 140.619 70.2864C142.219 70.2864 143.54 71.6227 143.54 73.3C143.54 74.9636 142.219 76.3136 140.647 76.3136Z" fill="#2F2F2F"/>
<path d="M146.373 76.7773H147.055V70.4227H151.061V69.8227H146.373V76.7773Z" fill="#2F2F2F"/>
<path d="M155.915 76.9409C158.03 76.9409 159.574 75.25 159.574 73.3C159.574 71.3227 158.044 69.6591 155.943 69.6591C153.829 69.6591 152.285 71.35 152.285 73.3C152.285 75.2773 153.815 76.9409 155.915 76.9409ZM155.943 76.3136C154.302 76.3136 153.022 74.9773 153.022 73.3C153.022 71.6364 154.316 70.2864 155.915 70.2864C157.515 70.2864 158.837 71.6227 158.837 73.3C158.837 74.9636 157.515 76.3136 155.943 76.3136Z" fill="#2F2F2F"/>
<path d="M164.741 78.7409H165.311L165.45 76.7773H171.919V78.7409H172.475L172.614 76.1773H171.474V69.8227H166.716V71.2955C166.716 73.6136 166.299 75.1682 165.673 76.1773H164.741V78.7409ZM166.424 76.1773C166.98 75.25 167.37 73.5318 167.37 71.6773V70.4227H170.792V76.1773H166.424Z" fill="#2F2F2F"/>
<path d="M174.33 76.7773H175.012L179.825 70.7091V76.7773H180.506V69.8227H179.825L175.012 75.8909V69.8227H174.33V76.7773Z" fill="#2F2F2F"/>
<path d="M185.318 76.9136C186.903 76.9136 187.961 75.9591 187.961 74.8682C187.961 73.9545 187.432 73.4364 186.639 73.1636C187.237 72.9182 187.78 72.4273 187.78 71.5545C187.78 70.4636 186.82 69.7 185.332 69.7C184.372 69.7 183.44 69.9727 182.702 70.5045L183.106 71.0364C183.76 70.5318 184.608 70.3273 185.318 70.3273C186.277 70.3273 187.029 70.8045 187.029 71.5545C187.029 72.4136 186.264 72.9182 185.262 72.9182H184.274V73.5182H185.248C186.486 73.5182 187.223 74.0364 187.223 74.8545C187.223 75.6864 186.264 76.2864 185.29 76.2864C184.358 76.2864 183.593 75.9591 182.842 75.3318L182.424 75.8773C183.273 76.5591 184.26 76.9136 185.318 76.9136Z" fill="#2F2F2F"/>
<path d="M192.203 76.9409C193.553 76.9409 194.429 76.2864 194.916 75.6182V76.7773H195.584V72.4409C195.584 71.5818 195.333 70.9409 194.86 70.4773C194.346 69.9727 193.58 69.7136 192.621 69.7136C191.647 69.7136 190.882 69.9591 190.103 70.3136L190.353 70.9C191.007 70.5727 191.716 70.3409 192.579 70.3409C194.04 70.3409 194.916 71.0636 194.916 72.4682V72.7682C194.234 72.5909 193.553 72.4682 192.565 72.4682C190.729 72.4682 189.463 73.2864 189.463 74.7318C189.463 76.2045 190.743 76.9409 192.203 76.9409ZM192.245 76.3136C191.021 76.3136 190.2 75.7273 190.2 74.7182C190.2 73.7227 191.021 73.0682 192.523 73.0682C193.539 73.0682 194.332 73.2318 194.93 73.3818V74.1727C194.93 75.4409 193.692 76.3136 192.245 76.3136Z" fill="#2F2F2F"/>
<path d="M198.035 76.7773H198.716L203.529 70.7091V76.7773H204.211V69.8227H203.529L198.716 75.8909V69.8227H198.035V76.7773ZM201.123 68.6909C202.111 68.6909 202.834 68.0091 203.001 67.1227L202.431 67C202.264 67.6136 201.846 67.9955 201.123 67.9955C200.4 67.9955 199.982 67.6136 199.815 67L199.245 67.1227C199.412 68.0091 200.135 68.6909 201.123 68.6909Z" fill="#2F2F2F"/>
<path d="M206.797 76.7773H207.478V73.5182H212.194V76.7773H212.876V69.8227H212.194V72.9182H207.478V69.8227H206.797V76.7773Z" fill="#2F2F2F"/>
<path d="M217.62 76.9409C218.969 76.9409 219.845 76.2864 220.332 75.6182V76.7773H221V72.4409C221 71.5818 220.75 70.9409 220.277 70.4773C219.762 69.9727 218.997 69.7136 218.037 69.7136C217.063 69.7136 216.298 69.9591 215.519 70.3136L215.77 70.9C216.423 70.5727 217.133 70.3409 217.995 70.3409C219.456 70.3409 220.332 71.0636 220.332 72.4682V72.7682C219.651 72.5909 218.969 72.4682 217.981 72.4682C216.145 72.4682 214.879 73.2864 214.879 74.7318C214.879 76.2045 216.159 76.9409 217.62 76.9409ZM217.661 76.3136C216.437 76.3136 215.617 75.7273 215.617 74.7182C215.617 73.7227 216.437 73.0682 217.94 73.0682C218.955 73.0682 219.748 73.2318 220.346 73.3818V74.1727C220.346 75.4409 219.108 76.3136 217.661 76.3136Z" fill="#2F2F2F"/>
</svg>
