<svg width="184" height="62" viewBox="0 0 184 62" fill="none" xmlns="http://www.w3.org/2000/svg">
<path d="M20.1133 0C21.7894 0 23.5202 0.162919 25.3056 0.488759C27.091 0.778395 28.512 1.19475 29.5687 1.73781C29.8602 1.88263 30.0424 2.04555 30.1153 2.22657C30.2246 2.37139 30.3157 2.64292 30.3886 3.04117L30.9898 9.61228C30.9898 9.72089 30.8987 9.7933 30.7165 9.82951C30.5343 9.82951 30.425 9.7752 30.3886 9.66659C29.4412 6.84264 27.8926 4.74278 25.7428 3.36701C23.593 1.95504 21.006 1.24905 17.9817 1.24905C15.3218 1.24905 13.0081 1.86453 11.0404 3.09548C9.07284 4.29023 7.5607 5.99184 6.50402 8.20031C5.48379 10.4088 4.97367 12.9612 4.97367 15.8575C4.97367 19.2246 5.62953 22.32 6.94127 25.144C8.25301 27.9679 10.0202 30.2126 12.2429 31.878C14.502 33.5072 16.9615 34.3218 19.6214 34.3218C24.8683 34.3218 28.6214 31.3349 30.8805 25.3612C30.8805 25.2526 30.9533 25.1983 31.0991 25.1983C31.2084 25.1983 31.2995 25.2164 31.3724 25.2526C31.4817 25.2888 31.5363 25.3431 31.5363 25.4155L30.7711 31.9866C30.6983 32.4211 30.6072 32.7107 30.4979 32.8555C30.425 32.9641 30.2246 33.0909 29.8967 33.2357C26.5444 34.539 23.1193 35.1907 19.6214 35.1907C15.2125 35.1907 11.5323 34.3218 8.58094 32.584C5.62953 30.81 3.46153 28.5653 2.07692 25.85C0.692305 23.1346 0 20.2926 0 17.3238C0 13.9568 0.929147 10.9699 2.78744 8.36322C4.68217 5.7203 7.15989 3.67475 10.2206 2.22657C13.3178 0.742192 16.6153 0 20.1133 0Z" fill="#AEBE89"/>
<path d="M49.8976 22.9717C54.0879 23.37 56.183 25.0173 56.183 27.9136C56.183 29.8687 55.3814 31.4798 53.7782 32.7469C52.2114 34.0141 50.1891 34.6476 47.7114 34.6476C47.1649 34.6476 46.1264 34.6114 44.596 34.539C42.8471 34.4666 41.6082 34.4304 40.8795 34.4304L37.928 34.4847C37.3815 34.5209 36.6163 34.539 35.6325 34.539C35.5232 34.539 35.4685 34.4304 35.4685 34.2132C35.4685 33.996 35.5232 33.8874 35.6325 33.8874C36.6163 33.8874 37.3268 33.7968 37.7641 33.6158C38.2378 33.4348 38.5475 33.0909 38.6932 32.584C38.8754 32.0409 38.9665 31.2263 38.9665 30.1402V17.9755C38.9665 16.8894 38.8754 16.0929 38.6932 15.586C38.5475 15.0429 38.2378 14.6809 37.7641 14.4999C37.3268 14.3189 36.6345 14.2283 35.6872 14.2283C35.5778 14.2283 35.5232 14.1197 35.5232 13.9025C35.5232 13.6853 35.5778 13.5767 35.6872 13.5767L40.8795 13.631L43.7762 13.5767C45.1608 13.5043 46.1993 13.4681 46.8916 13.4681C49.1507 13.4681 50.8814 13.812 52.0839 14.4999C53.2863 15.1878 53.8875 16.2196 53.8875 17.5954C53.8875 18.5367 53.5596 19.4418 52.9037 20.3107C52.2478 21.1796 51.2458 22.0666 49.8976 22.9717ZM45.5252 14.337C44.7236 14.337 44.1224 14.4275 43.7215 14.6085C43.3572 14.7895 43.0839 15.1516 42.9017 15.6946C42.756 16.2015 42.6831 16.998 42.6831 18.0841V22.9174H48.5859C49.3875 21.9037 49.7883 20.5822 49.7883 18.953C49.7883 17.3238 49.4422 16.1472 48.7499 15.4231C48.0576 14.699 46.9827 14.337 45.5252 14.337ZM46.7276 33.6701C50.2256 33.6701 51.9746 32.1495 51.9746 29.1084C51.9746 27.4792 51.5009 26.1939 50.5535 25.2526C49.6061 24.3113 48.1304 23.8406 46.1264 23.8406H42.6831V30.1402C42.6831 31.4436 42.9564 32.3668 43.5029 32.9098C44.0495 33.4167 45.1244 33.6701 46.7276 33.6701Z" fill="#AEBE89"/>
<path d="M84.9516 33.8874C85.0244 33.8874 85.0609 33.996 85.0609 34.2132C85.0609 34.4304 85.0244 34.539 84.9516 34.539C83.9678 34.539 83.2026 34.5209 82.656 34.4847L79.8139 34.4304L76.8079 34.4847C76.2613 34.5209 75.5144 34.539 74.567 34.539C74.4577 34.539 74.403 34.4304 74.403 34.2132C74.403 33.996 74.4577 33.8874 74.567 33.8874C75.5508 33.8874 76.2613 33.7968 76.6985 33.6158C77.1722 33.4348 77.482 33.0909 77.6277 32.584C77.8099 32.0409 77.901 31.2263 77.901 30.1402V19.3875L66.9152 30.3031C66.9152 31.3531 66.9881 32.1314 67.1338 32.6383C67.316 33.109 67.6439 33.4348 68.1176 33.6158C68.5913 33.7968 69.3018 33.8874 70.2492 33.8874C70.3221 33.8874 70.3585 33.996 70.3585 34.2132C70.3585 34.4304 70.3221 34.539 70.2492 34.539C69.2654 34.539 68.5002 34.5209 67.9536 34.4847L65.1116 34.4304L62.1601 34.4847C61.6136 34.5209 60.8484 34.539 59.8646 34.539C59.7553 34.539 59.7006 34.4304 59.7006 34.2132C59.7006 33.996 59.7553 33.8874 59.8646 33.8874C60.8484 33.8874 61.5589 33.7968 61.9962 33.6158C62.4699 33.4348 62.7796 33.0909 62.9253 32.584C63.1075 32.0409 63.1986 31.2263 63.1986 30.1402V17.9755C63.1986 16.8894 63.1075 16.0929 62.9253 15.586C62.7796 15.0429 62.4699 14.6809 61.9962 14.4999C61.5589 14.3189 60.8666 14.2283 59.9193 14.2283C59.81 14.2283 59.7553 14.1197 59.7553 13.9025C59.7553 13.6853 59.81 13.5767 59.9193 13.5767C60.8666 13.5767 61.6136 13.5948 62.1601 13.631L65.1116 13.6853L68.0083 13.631C68.5549 13.5948 69.3018 13.5767 70.2492 13.5767C70.3221 13.5767 70.3585 13.6853 70.3585 13.9025C70.3585 14.1197 70.3221 14.2283 70.2492 14.2283C69.2654 14.2283 68.5366 14.337 68.063 14.5542C67.6257 14.7714 67.316 15.1516 67.1338 15.6946C66.9881 16.2015 66.9152 16.998 66.9152 18.0841V28.6739L77.901 17.7583C77.901 16.7446 77.8099 16.0024 77.6277 15.5317C77.482 15.0248 77.1722 14.6809 76.6985 14.4999C76.2613 14.3189 75.569 14.2283 74.6216 14.2283C74.5123 14.2283 74.4577 14.1197 74.4577 13.9025C74.4577 13.6853 74.5123 13.5767 74.6216 13.5767C75.569 13.5767 76.316 13.5948 76.8625 13.631L79.8139 13.6853L82.7107 13.631C83.2572 13.5948 84.0042 13.5767 84.9516 13.5767C85.0244 13.5767 85.0609 13.6853 85.0609 13.9025C85.0609 14.1197 85.0244 14.2283 84.9516 14.2283C83.9678 14.2283 83.239 14.337 82.7653 14.5542C82.3281 14.7714 82.0184 15.1516 81.8362 15.6946C81.6904 16.2015 81.6176 16.998 81.6176 18.0841V30.1402C81.6176 31.2263 81.6904 32.0409 81.8362 32.584C82.0184 33.0909 82.3281 33.4348 82.7653 33.6158C83.239 33.7968 83.9678 33.8874 84.9516 33.8874Z" fill="#AEBE89"/>
<path d="M103.833 12.8707C105.363 12.8707 106.766 13.2689 108.041 14.0654C109.353 14.8619 110.392 16.0205 111.157 17.541C111.958 19.0616 112.359 20.8357 112.359 22.8631C112.359 25.6508 111.74 27.986 110.501 29.8687C109.262 31.7151 107.732 33.0728 105.91 33.9417C104.088 34.8106 102.266 35.245 100.444 35.245C99.3876 35.245 98.4403 35.1545 97.6022 34.9735C96.8006 34.8287 95.9443 34.5571 95.0334 34.1589V40.6012C95.0334 41.6873 95.1609 42.4838 95.416 42.9907C95.7075 43.4975 96.1994 43.8415 96.8917 44.0225C97.6204 44.2397 98.75 44.3483 100.28 44.3483C100.39 44.3483 100.444 44.4569 100.444 44.6742C100.444 44.8914 100.39 45 100.28 45C99.005 45 98.003 44.9819 97.2743 44.9457L93.1751 44.8914L89.8958 44.9457C89.3492 44.9819 88.584 45 87.6002 45C87.5273 45 87.4909 44.8914 87.4909 44.6742C87.4909 44.4569 87.5273 44.3483 87.6002 44.3483C88.6569 44.3483 89.4403 44.2397 89.9504 44.0225C90.497 43.8415 90.8613 43.4975 91.0435 42.9907C91.2257 42.4838 91.3168 41.6873 91.3168 40.6012V17.9755C91.3168 16.4549 91.0253 15.4593 90.4423 14.9886C89.8593 14.4818 88.7298 14.2283 87.0537 14.2283C86.9444 14.2283 86.8897 14.1197 86.8897 13.9025C86.8897 13.6853 86.9444 13.5767 87.0537 13.5767H93.9403C94.3775 13.5767 94.669 13.6672 94.8148 13.8482C94.9605 14.0292 95.0334 14.3913 95.0334 14.9343V17.1609C96.5638 15.6765 98.0395 14.5904 99.4605 13.9025C100.882 13.2146 102.339 12.8707 103.833 12.8707ZM101.92 34.0503C103.815 34.0503 105.327 33.2357 106.456 31.6065C107.622 29.9411 108.205 27.5878 108.205 24.5466C108.205 21.6141 107.531 19.3332 106.183 17.704C104.871 16.0748 103.195 15.2602 101.155 15.2602C99.9524 15.2602 98.8593 15.5136 97.8755 16.0205C96.9281 16.5273 95.9808 17.2695 95.0334 18.247V30.7919C95.9443 31.8418 96.9281 32.6564 97.9848 33.2357C99.0415 33.7787 100.353 34.0503 101.92 34.0503Z" fill="#AEBE89"/>
<path d="M134.543 31.3349C134.652 31.3349 134.743 31.4074 134.816 31.5522C134.926 31.6608 134.944 31.7694 134.871 31.878C133.596 33.0366 132.284 33.8874 130.936 34.4304C129.624 34.9373 128.203 35.1907 126.673 35.1907C124.486 35.1907 122.592 34.7201 120.988 33.7787C119.422 32.8012 118.219 31.516 117.381 29.923C116.58 28.33 116.179 26.6103 116.179 24.7638C116.179 22.6278 116.689 20.6727 117.709 18.8987C118.766 17.0885 120.205 15.6765 122.027 14.6628C123.885 13.6129 125.926 13.0879 128.148 13.0879C130.189 13.0879 131.774 13.5767 132.903 14.5542C134.033 15.4955 134.598 16.7989 134.598 18.4643C134.598 19.3694 134.397 19.8219 133.996 19.8219H131.373L120.606 19.9305C120.46 20.6546 120.387 21.5416 120.387 22.5916C120.387 25.7052 121.134 28.2214 122.628 30.1402C124.158 32.059 126.254 33.0185 128.914 33.0185C131.027 33.0185 132.885 32.4573 134.488 31.3349H134.543ZM126.235 14.174C124.887 14.174 123.739 14.6085 122.792 15.4774C121.845 16.3101 121.171 17.5048 120.77 19.0616L130.171 18.8444C130.134 17.3962 129.77 16.2558 129.077 15.4231C128.385 14.5904 127.438 14.174 126.235 14.174Z" fill="#AEBE89"/>
<path d="M139.797 34.9735C138.085 34.9735 137.228 34.3037 137.228 32.9641C137.228 32.3125 137.411 31.8237 137.775 31.4979C138.139 31.1358 138.595 30.9548 139.141 30.9548C139.36 30.9548 139.633 30.991 139.961 31.0634C140.326 31.1358 140.599 31.172 140.781 31.172C141.947 31.172 142.931 30.4298 143.732 28.9455C144.571 27.4611 145.19 25.6327 145.591 23.4605C146.028 21.252 146.247 19.1522 146.247 17.1609C146.247 15.9662 145.973 15.1878 145.427 14.8257C144.917 14.4637 143.878 14.2464 142.311 14.174C142.202 14.174 142.147 14.0654 142.147 13.8482C142.147 13.631 142.202 13.5224 142.311 13.5224L151.111 13.5767H160.621C160.73 13.5767 160.785 13.6853 160.785 13.9025C160.785 14.1197 160.73 14.2283 160.621 14.2283C159.637 14.2645 158.927 14.3732 158.489 14.5542C158.052 14.7352 157.743 15.0792 157.56 15.586C157.415 16.0929 157.342 16.9256 157.342 18.0841V30.1402C157.342 31.2987 157.415 32.1314 157.56 32.6383C157.743 33.109 158.034 33.4348 158.435 33.6158C158.872 33.7606 159.601 33.8512 160.621 33.8874C160.73 33.8874 160.785 33.996 160.785 34.2132C160.785 34.4304 160.73 34.539 160.621 34.539C159.674 34.539 158.945 34.5209 158.435 34.4847L155.538 34.4304L152.477 34.4847C151.931 34.5209 151.202 34.539 150.291 34.539C150.182 34.539 150.127 34.4304 150.127 34.2132C150.127 33.996 150.182 33.8874 150.291 33.8874C151.311 33.8512 152.04 33.7606 152.477 33.6158C152.915 33.4348 153.206 33.109 153.352 32.6383C153.534 32.1314 153.625 31.2987 153.625 30.1402V17.9755C153.625 16.7446 153.589 15.93 153.516 15.5317C153.443 15.1335 153.261 14.88 152.969 14.7714C152.714 14.6628 152.168 14.6085 151.33 14.6085H150.838C149.89 14.6085 149.216 14.699 148.815 14.88C148.451 15.0248 148.196 15.3145 148.05 15.7489C147.904 16.1472 147.777 16.8713 147.668 17.9212L147.558 19.0073C147.23 22.0485 146.83 24.6552 146.356 26.8275C145.919 28.9636 145.172 30.8643 144.115 32.5297C143.058 34.1589 141.619 34.9735 139.797 34.9735Z" fill="#AEBE89"/>
<path d="M176.403 22.2114C181.468 22.2114 184 24.0941 184 27.8593C184 29.8506 183.271 31.4798 181.814 32.7469C180.356 34.0141 178.48 34.6476 176.184 34.6476C175.638 34.6476 174.599 34.6114 173.069 34.539C171.32 34.4666 170.081 34.4304 169.352 34.4304L166.401 34.4847C165.854 34.5209 165.089 34.539 164.105 34.539C163.996 34.539 163.941 34.4304 163.941 34.2132C163.941 33.996 163.996 33.8874 164.105 33.8874C165.089 33.8874 165.8 33.7968 166.237 33.6158C166.711 33.4348 167.02 33.0909 167.166 32.584C167.348 32.0409 167.439 31.2263 167.439 30.1402V17.9755C167.439 16.8894 167.348 16.0929 167.166 15.586C167.02 15.0429 166.711 14.6809 166.237 14.4999C165.8 14.3189 165.107 14.2283 164.16 14.2283C164.051 14.2283 163.996 14.1197 163.996 13.9025C163.996 13.6853 164.051 13.5767 164.16 13.5767C165.107 13.5767 165.854 13.5948 166.401 13.631L169.352 13.6853L172.577 13.631C173.196 13.5948 174.034 13.5767 175.091 13.5767C175.2 13.5767 175.255 13.6853 175.255 13.9025C175.255 14.1197 175.2 14.2283 175.091 14.2283C173.925 14.2283 173.069 14.337 172.522 14.5542C171.976 14.7714 171.611 15.1516 171.429 15.6946C171.247 16.2015 171.156 16.998 171.156 18.0841V22.8631C172.613 22.4287 174.362 22.2114 176.403 22.2114ZM175.091 33.8331C178.298 33.8331 179.901 32.2401 179.901 29.0541C179.901 27.2438 179.464 25.8319 178.589 24.8181C177.715 23.7682 176.348 23.2433 174.49 23.2433C173.251 23.2433 172.14 23.4062 171.156 23.732V30.1402C171.156 31.4798 171.429 32.4392 171.976 33.0185C172.522 33.5615 173.561 33.8331 175.091 33.8331Z" fill="#AEBE89"/>
<path d="M5.00469 60.2841C6.43165 60.2841 7.35227 59.7273 8.20384 58.8977L7.80107 58.5114C6.98402 59.3068 6.18999 59.75 5.0277 59.75C3.10591 59.75 1.62142 58.1818 1.62142 56.1705C1.62142 54.1477 3.0829 52.5909 5.0162 52.5909C6.22451 52.5909 7.03005 53.0909 7.73202 53.7614L8.12328 53.3636C7.29473 52.6136 6.46617 52.0568 5.0277 52.0568C2.70314 52.0568 1 53.9205 1 56.1705C1 58.4773 2.70314 60.2841 5.00469 60.2841Z" fill="url(#paint0_linear)"/>
<path d="M5.00469 60.2841C6.43165 60.2841 7.35227 59.7273 8.20384 58.8977L7.80107 58.5114C6.98402 59.3068 6.18999 59.75 5.0277 59.75C3.10591 59.75 1.62142 58.1818 1.62142 56.1705C1.62142 54.1477 3.0829 52.5909 5.0162 52.5909C6.22451 52.5909 7.03005 53.0909 7.73202 53.7614L8.12328 53.3636C7.29473 52.6136 6.46617 52.0568 5.0277 52.0568C2.70314 52.0568 1 53.9205 1 56.1705C1 58.4773 2.70314 60.2841 5.00469 60.2841Z" fill="black"/>
<path d="M11.1991 60.1477H11.763V54.8523H13.9609V54.3523H9.00111V54.8523H11.1991V60.1477Z" fill="url(#paint1_linear)"/>
<path d="M11.1991 60.1477H11.763V54.8523H13.9609V54.3523H9.00111V54.8523H11.1991V60.1477Z" fill="black"/>
<path d="M16.0923 62C16.9324 62 17.5308 61.5682 18.0486 60.3523L20.5918 54.3523H19.9704L17.853 59.5341L15.4133 54.3523H14.7574L17.5768 60.1136C17.1395 61.125 16.7367 61.4773 16.1268 61.4773C15.6895 61.4773 15.4364 61.4091 15.1256 61.2614L14.93 61.75C15.3213 61.9205 15.6435 62 16.0923 62Z" fill="url(#paint2_linear)"/>
<path d="M16.0923 62C16.9324 62 17.5308 61.5682 18.0486 60.3523L20.5918 54.3523H19.9704L17.853 59.5341L15.4133 54.3523H14.7574L17.5768 60.1136C17.1395 61.125 16.7367 61.4773 16.1268 61.4773C15.6895 61.4773 15.4364 61.4091 15.1256 61.2614L14.93 61.75C15.3213 61.9205 15.6435 62 16.0923 62Z" fill="black"/>
<path d="M21.235 61.7841H21.7068L21.8219 60.1477H27.173V61.7841H27.6333L27.7484 59.6477H26.8047V54.3523H22.8691V55.5795C22.8691 57.5114 22.5239 58.8068 22.006 59.6477H21.235V61.7841ZM22.6274 59.6477C23.0877 58.875 23.41 57.4432 23.41 55.8977V54.8523H26.2409V59.6477H22.6274Z" fill="url(#paint3_linear)"/>
<path d="M21.235 61.7841H21.7068L21.8219 60.1477H27.173V61.7841H27.6333L27.7484 59.6477H26.8047V54.3523H22.8691V55.5795C22.8691 57.5114 22.5239 58.8068 22.006 59.6477H21.235V61.7841ZM22.6274 59.6477C23.0877 58.875 23.41 57.4432 23.41 55.8977V54.8523H26.2409V59.6477H22.6274Z" fill="black"/>
<path d="M29.1679 60.1477H29.7317L33.7134 55.0909V60.1477H34.2773V54.3523H33.7134L29.7317 59.4091V54.3523H29.1679V60.1477Z" fill="url(#paint4_linear)"/>
<path d="M29.1679 60.1477H29.7317L33.7134 55.0909V60.1477H34.2773V54.3523H33.7134L29.7317 59.4091V54.3523H29.1679V60.1477Z" fill="black"/>
<path d="M35.9446 60.1477H36.635L38.3842 57.9205H40.3175V60.1477H40.8814V54.3523H38.2576C36.9112 54.3523 36.1057 55.0568 36.1057 56.0795C36.1057 57.0455 36.8652 57.6705 37.7973 57.8409L35.9446 60.1477ZM38.3612 57.4205C37.4176 57.4205 36.7156 56.9205 36.7156 56.1136C36.7156 55.3523 37.314 54.8523 38.3382 54.8523H40.3175V57.4205H38.3612Z" fill="url(#paint5_linear)"/>
<path d="M35.9446 60.1477H36.635L38.3842 57.9205H40.3175V60.1477H40.8814V54.3523H38.2576C36.9112 54.3523 36.1057 55.0568 36.1057 56.0795C36.1057 57.0455 36.8652 57.6705 37.7973 57.8409L35.9446 60.1477ZM38.3612 57.4205C37.4176 57.4205 36.7156 56.9205 36.7156 56.1136C36.7156 55.3523 37.314 54.8523 38.3382 54.8523H40.3175V57.4205H38.3612Z" fill="black"/>
<path d="M46.0947 60.2386C47.1764 60.2386 47.8899 59.8068 47.9014 55.0114V54.8523H50.7898V60.1477H51.3537V54.3523H47.3605V54.6591C47.3375 59.375 46.7851 59.7159 46.0026 59.7159C45.8875 59.7159 45.6343 59.6591 45.5538 59.6364L45.4502 60.1477C45.6113 60.1932 45.9105 60.2386 46.0947 60.2386Z" fill="url(#paint6_linear)"/>
<path d="M46.0947 60.2386C47.1764 60.2386 47.8899 59.8068 47.9014 55.0114V54.8523H50.7898V60.1477H51.3537V54.3523H47.3605V54.6591C47.3375 59.375 46.7851 59.7159 46.0026 59.7159C45.8875 59.7159 45.6343 59.6591 45.5538 59.6364L45.4502 60.1477C45.6113 60.1932 45.9105 60.2386 46.0947 60.2386Z" fill="black"/>
<path d="M55.2819 60.2841C56.3981 60.2841 57.1231 59.7386 57.5259 59.1818V60.1477H58.0782V56.5341C58.0782 55.8182 57.8711 55.2841 57.4798 54.8977C57.054 54.4773 56.4211 54.2614 55.6271 54.2614C54.8215 54.2614 54.1886 54.4659 53.5442 54.7614L53.7513 55.25C54.2922 54.9773 54.8791 54.7841 55.5926 54.7841C56.8009 54.7841 57.5259 55.3864 57.5259 56.5568V56.8068C56.962 56.6591 56.3981 56.5568 55.5811 56.5568C54.062 56.5568 53.0148 57.2386 53.0148 58.4432C53.0148 59.6705 54.0735 60.2841 55.2819 60.2841ZM55.3164 59.7614C54.3037 59.7614 53.6247 59.2727 53.6247 58.4318C53.6247 57.6023 54.3037 57.0568 55.5465 57.0568C56.3866 57.0568 57.0425 57.1932 57.5374 57.3182V57.9773C57.5374 59.0341 56.5132 59.7614 55.3164 59.7614Z" fill="url(#paint7_linear)"/>
<path d="M55.2819 60.2841C56.3981 60.2841 57.1231 59.7386 57.5259 59.1818V60.1477H58.0782V56.5341C58.0782 55.8182 57.8711 55.2841 57.4798 54.8977C57.054 54.4773 56.4211 54.2614 55.6271 54.2614C54.8215 54.2614 54.1886 54.4659 53.5442 54.7614L53.7513 55.25C54.2922 54.9773 54.8791 54.7841 55.5926 54.7841C56.8009 54.7841 57.5259 55.3864 57.5259 56.5568V56.8068C56.962 56.6591 56.3981 56.5568 55.5811 56.5568C54.062 56.5568 53.0148 57.2386 53.0148 58.4432C53.0148 59.6705 54.0735 60.2841 55.2819 60.2841ZM55.3164 59.7614C54.3037 59.7614 53.6247 59.2727 53.6247 58.4318C53.6247 57.6023 54.3037 57.0568 55.5465 57.0568C56.3866 57.0568 57.0425 57.1932 57.5374 57.3182V57.9773C57.5374 59.0341 56.5132 59.7614 55.3164 59.7614Z" fill="black"/>
<path d="M60.1061 60.1477H60.67V57.4318H64.5711V60.1477H65.135V54.3523H64.5711V56.9318H60.67V54.3523H60.1061V60.1477Z" fill="url(#paint8_linear)"/>
<path d="M60.1061 60.1477H60.67V57.4318H64.5711V60.1477H65.135V54.3523H64.5711V56.9318H60.67V54.3523H60.1061V60.1477Z" fill="black"/>
<path d="M66.3669 61.7841H66.8387L66.9538 60.1477H72.3048V61.7841H72.7652L72.8802 59.6477H71.9366V54.3523H68.001V55.5795C68.001 57.5114 67.6557 58.8068 67.1379 59.6477H66.3669V61.7841ZM67.7593 59.6477C68.2196 58.875 68.5418 57.4432 68.5418 55.8977V54.8523H71.3727V59.6477H67.7593Z" fill="url(#paint9_linear)"/>
<path d="M66.3669 61.7841H66.8387L66.9538 60.1477H72.3048V61.7841H72.7652L72.8802 59.6477H71.9366V54.3523H68.001V55.5795C68.001 57.5114 67.6557 58.8068 67.1379 59.6477H66.3669V61.7841ZM67.7593 59.6477C68.2196 58.875 68.5418 57.4432 68.5418 55.8977V54.8523H71.3727V59.6477H67.7593Z" fill="black"/>
<path d="M74.2997 60.1477H82.4817V54.3523H81.9178V59.6477H78.6727V54.3523H78.1088V59.6477H74.8636V54.3523H74.2997V60.1477Z" fill="url(#paint10_linear)"/>
<path d="M74.2997 60.1477H82.4817V54.3523H81.9178V59.6477H78.6727V54.3523H78.1088V59.6477H74.8636V54.3523H74.2997V60.1477Z" fill="black"/>
<path d="M86.4112 60.2841C87.5274 60.2841 88.2524 59.7386 88.6552 59.1818V60.1477H89.2075V56.5341C89.2075 55.8182 89.0004 55.2841 88.6091 54.8977C88.1834 54.4773 87.5504 54.2614 86.7564 54.2614C85.9509 54.2614 85.3179 54.4659 84.6735 54.7614L84.8806 55.25C85.4215 54.9773 86.0084 54.7841 86.7219 54.7841C87.9302 54.7841 88.6552 55.3864 88.6552 56.5568V56.8068C88.0913 56.6591 87.5274 56.5568 86.7104 56.5568C85.1913 56.5568 84.1441 57.2386 84.1441 58.4432C84.1441 59.6705 85.2029 60.2841 86.4112 60.2841ZM86.4457 59.7614C85.433 59.7614 84.7541 59.2727 84.7541 58.4318C84.7541 57.6023 85.433 57.0568 86.6758 57.0568C87.5159 57.0568 88.1718 57.1932 88.6667 57.3182V57.9773C88.6667 59.0341 87.6425 59.7614 86.4457 59.7614Z" fill="url(#paint11_linear)"/>
<path d="M86.4112 60.2841C87.5274 60.2841 88.2524 59.7386 88.6552 59.1818V60.1477H89.2075V56.5341C89.2075 55.8182 89.0004 55.2841 88.6091 54.8977C88.1834 54.4773 87.5504 54.2614 86.7564 54.2614C85.9509 54.2614 85.3179 54.4659 84.6735 54.7614L84.8806 55.25C85.4215 54.9773 86.0084 54.7841 86.7219 54.7841C87.9302 54.7841 88.6552 55.3864 88.6552 56.5568V56.8068C88.0913 56.6591 87.5274 56.5568 86.7104 56.5568C85.1913 56.5568 84.1441 57.2386 84.1441 58.4432C84.1441 59.6705 85.2029 60.2841 86.4112 60.2841ZM86.4457 59.7614C85.433 59.7614 84.7541 59.2727 84.7541 58.4318C84.7541 57.6023 85.433 57.0568 86.6758 57.0568C87.5159 57.0568 88.1718 57.1932 88.6667 57.3182V57.9773C88.6667 59.0341 87.6425 59.7614 86.4457 59.7614Z" fill="black"/>
<path d="M94.8028 61.9659H95.3667V59.625C95.7695 59.9773 96.1377 60.2841 96.9202 60.2841C98.3357 60.2841 99.3138 59.1364 99.3138 57.25C99.3138 55.3409 98.3357 54.2159 96.9202 54.2159C96.1952 54.2159 95.7695 54.5227 95.3667 54.8977V52.1932H94.8028V54.8977C94.3885 54.5227 93.9627 54.2159 93.2493 54.2159C91.8338 54.2159 90.8557 55.3409 90.8557 57.2273C90.8557 59.1364 91.8338 60.2841 93.2493 60.2841C93.9512 60.2841 94.3885 59.9773 94.8028 59.625V61.9659ZM93.3068 59.75C92.0295 59.75 91.4656 58.8295 91.4656 57.2727C91.4656 55.7273 92.0755 54.75 93.3068 54.75C93.9167 54.75 94.3885 55 94.8028 55.4432V59.0568C94.3885 59.5 93.9167 59.75 93.3068 59.75ZM96.8627 59.75C96.2528 59.75 95.781 59.5 95.3667 59.0568V55.4432C95.781 55 96.2528 54.75 96.8627 54.75C98.094 54.75 98.7039 55.7273 98.7039 57.25C98.7039 58.8295 98.1401 59.75 96.8627 59.75Z" fill="url(#paint12_linear)"/>
<path d="M94.8028 61.9659H95.3667V59.625C95.7695 59.9773 96.1377 60.2841 96.9202 60.2841C98.3357 60.2841 99.3138 59.1364 99.3138 57.25C99.3138 55.3409 98.3357 54.2159 96.9202 54.2159C96.1952 54.2159 95.7695 54.5227 95.3667 54.8977V52.1932H94.8028V54.8977C94.3885 54.5227 93.9627 54.2159 93.2493 54.2159C91.8338 54.2159 90.8557 55.3409 90.8557 57.2273C90.8557 59.1364 91.8338 60.2841 93.2493 60.2841C93.9512 60.2841 94.3885 59.9773 94.8028 59.625V61.9659ZM93.3068 59.75C92.0295 59.75 91.4656 58.8295 91.4656 57.2727C91.4656 55.7273 92.0755 54.75 93.3068 54.75C93.9167 54.75 94.3885 55 94.8028 55.4432V59.0568C94.3885 59.5 93.9167 59.75 93.3068 59.75ZM96.8627 59.75C96.2528 59.75 95.781 59.5 95.3667 59.0568V55.4432C95.781 55 96.2528 54.75 96.8627 54.75C98.094 54.75 98.7039 55.7273 98.7039 57.25C98.7039 58.8295 98.1401 59.75 96.8627 59.75Z" fill="black"/>
<path d="M102.553 60.1477H103.117V54.8523H105.315V54.3523H100.355V54.8523H102.553V60.1477Z" fill="url(#paint13_linear)"/>
<path d="M102.553 60.1477H103.117V54.8523H105.315V54.3523H100.355V54.8523H102.553V60.1477Z" fill="black"/>
<path d="M106.733 60.1477H107.297V57.4318H111.198V60.1477H111.762V54.3523H111.198V56.9318H107.297V54.3523H106.733V60.1477Z" fill="url(#paint14_linear)"/>
<path d="M106.733 60.1477H107.297V57.4318H111.198V60.1477H111.762V54.3523H111.198V56.9318H107.297V54.3523H106.733V60.1477Z" fill="black"/>
<path d="M116.503 60.2841C118.252 60.2841 119.53 58.875 119.53 57.25C119.53 55.6023 118.264 54.2159 116.526 54.2159C114.777 54.2159 113.5 55.625 113.5 57.25C113.5 58.8977 114.766 60.2841 116.503 60.2841ZM116.526 59.7614C115.168 59.7614 114.11 58.6477 114.11 57.25C114.11 55.8636 115.18 54.7386 116.503 54.7386C117.827 54.7386 118.92 55.8523 118.92 57.25C118.92 58.6364 117.827 59.7614 116.526 59.7614Z" fill="url(#paint15_linear)"/>
<path d="M116.503 60.2841C118.252 60.2841 119.53 58.875 119.53 57.25C119.53 55.6023 118.264 54.2159 116.526 54.2159C114.777 54.2159 113.5 55.625 113.5 57.25C113.5 58.8977 114.766 60.2841 116.503 60.2841ZM116.526 59.7614C115.168 59.7614 114.11 58.6477 114.11 57.25C114.11 55.8636 115.18 54.7386 116.503 54.7386C117.827 54.7386 118.92 55.8523 118.92 57.25C118.92 58.6364 117.827 59.7614 116.526 59.7614Z" fill="black"/>
<path d="M121.263 60.1477H121.827V54.8523H125.141V54.3523H121.263V60.1477Z" fill="url(#paint16_linear)"/>
<path d="M121.263 60.1477H121.827V54.8523H125.141V54.3523H121.263V60.1477Z" fill="black"/>
<path d="M129.157 60.2841C130.906 60.2841 132.184 58.875 132.184 57.25C132.184 55.6023 130.918 54.2159 129.18 54.2159C127.431 54.2159 126.154 55.625 126.154 57.25C126.154 58.8977 127.42 60.2841 129.157 60.2841ZM129.18 59.7614C127.822 59.7614 126.764 58.6477 126.764 57.25C126.764 55.8636 127.834 54.7386 129.157 54.7386C130.481 54.7386 131.574 55.8523 131.574 57.25C131.574 58.6364 130.481 59.7614 129.18 59.7614Z" fill="url(#paint17_linear)"/>
<path d="M129.157 60.2841C130.906 60.2841 132.184 58.875 132.184 57.25C132.184 55.6023 130.918 54.2159 129.18 54.2159C127.431 54.2159 126.154 55.625 126.154 57.25C126.154 58.8977 127.42 60.2841 129.157 60.2841ZM129.18 59.7614C127.822 59.7614 126.764 58.6477 126.764 57.25C126.764 55.8636 127.834 54.7386 129.157 54.7386C130.481 54.7386 131.574 55.8523 131.574 57.25C131.574 58.6364 130.481 59.7614 129.18 59.7614Z" fill="black"/>
<path d="M136.458 61.7841H136.93L137.045 60.1477H142.396V61.7841H142.857L142.972 59.6477H142.028V54.3523H138.092V55.5795C138.092 57.5114 137.747 58.8068 137.229 59.6477H136.458V61.7841ZM137.851 59.6477C138.311 58.875 138.633 57.4432 138.633 55.8977V54.8523H141.464V59.6477H137.851Z" fill="url(#paint18_linear)"/>
<path d="M136.458 61.7841H136.93L137.045 60.1477H142.396V61.7841H142.857L142.972 59.6477H142.028V54.3523H138.092V55.5795C138.092 57.5114 137.747 58.8068 137.229 59.6477H136.458V61.7841ZM137.851 59.6477C138.311 58.875 138.633 57.4432 138.633 55.8977V54.8523H141.464V59.6477H137.851Z" fill="black"/>
<path d="M144.391 60.1477H144.955L148.937 55.0909V60.1477H149.501V54.3523H148.937L144.955 59.4091V54.3523H144.391V60.1477Z" fill="url(#paint19_linear)"/>
<path d="M144.391 60.1477H144.955L148.937 55.0909V60.1477H149.501V54.3523H148.937L144.955 59.4091V54.3523H144.391V60.1477Z" fill="black"/>
<path d="M153.481 60.2614C154.793 60.2614 155.667 59.4659 155.667 58.5568C155.667 57.7955 155.23 57.3636 154.574 57.1364C155.069 56.9318 155.518 56.5227 155.518 55.7955C155.518 54.8864 154.724 54.25 153.492 54.25C152.698 54.25 151.927 54.4773 151.318 54.9205L151.651 55.3636C152.192 54.9432 152.894 54.7727 153.481 54.7727C154.275 54.7727 154.896 55.1705 154.896 55.7955C154.896 56.5114 154.264 56.9318 153.435 56.9318H152.618V57.4318H153.423C154.448 57.4318 155.058 57.8636 155.058 58.5455C155.058 59.2386 154.264 59.7386 153.458 59.7386C152.687 59.7386 152.054 59.4659 151.433 58.9432L151.087 59.3977C151.789 59.9659 152.606 60.2614 153.481 60.2614Z" fill="url(#paint20_linear)"/>
<path d="M153.481 60.2614C154.793 60.2614 155.667 59.4659 155.667 58.5568C155.667 57.7955 155.23 57.3636 154.574 57.1364C155.069 56.9318 155.518 56.5227 155.518 55.7955C155.518 54.8864 154.724 54.25 153.492 54.25C152.698 54.25 151.927 54.4773 151.318 54.9205L151.651 55.3636C152.192 54.9432 152.894 54.7727 153.481 54.7727C154.275 54.7727 154.896 55.1705 154.896 55.7955C154.896 56.5114 154.264 56.9318 153.435 56.9318H152.618V57.4318H153.423C154.448 57.4318 155.058 57.8636 155.058 58.5455C155.058 59.2386 154.264 59.7386 153.458 59.7386C152.687 59.7386 152.054 59.4659 151.433 58.9432L151.087 59.3977C151.789 59.9659 152.606 60.2614 153.481 60.2614Z" fill="black"/>
<path d="M159.177 60.2841C160.294 60.2841 161.019 59.7386 161.421 59.1818V60.1477H161.974V56.5341C161.974 55.8182 161.767 55.2841 161.375 54.8977C160.949 54.4773 160.317 54.2614 159.523 54.2614C158.717 54.2614 158.084 54.4659 157.44 54.7614L157.647 55.25C158.188 54.9773 158.775 54.7841 159.488 54.7841C160.696 54.7841 161.421 55.3864 161.421 56.5568V56.8068C160.857 56.6591 160.294 56.5568 159.477 56.5568C157.957 56.5568 156.91 57.2386 156.91 58.4432C156.91 59.6705 157.969 60.2841 159.177 60.2841ZM159.212 59.7614C158.199 59.7614 157.52 59.2727 157.52 58.4318C157.52 57.6023 158.199 57.0568 159.442 57.0568C160.282 57.0568 160.938 57.1932 161.433 57.3182V57.9773C161.433 59.0341 160.409 59.7614 159.212 59.7614Z" fill="url(#paint21_linear)"/>
<path d="M159.177 60.2841C160.294 60.2841 161.019 59.7386 161.421 59.1818V60.1477H161.974V56.5341C161.974 55.8182 161.767 55.2841 161.375 54.8977C160.949 54.4773 160.317 54.2614 159.523 54.2614C158.717 54.2614 158.084 54.4659 157.44 54.7614L157.647 55.25C158.188 54.9773 158.775 54.7841 159.488 54.7841C160.696 54.7841 161.421 55.3864 161.421 56.5568V56.8068C160.857 56.6591 160.294 56.5568 159.477 56.5568C157.957 56.5568 156.91 57.2386 156.91 58.4432C156.91 59.6705 157.969 60.2841 159.177 60.2841ZM159.212 59.7614C158.199 59.7614 157.52 59.2727 157.52 58.4318C157.52 57.6023 158.199 57.0568 159.442 57.0568C160.282 57.0568 160.938 57.1932 161.433 57.3182V57.9773C161.433 59.0341 160.409 59.7614 159.212 59.7614Z" fill="black"/>
<path d="M164.002 60.1477H164.565L168.547 55.0909V60.1477H169.111V54.3523H168.547L164.565 59.4091V54.3523H164.002V60.1477ZM166.556 53.4091C167.373 53.4091 167.972 52.8409 168.11 52.1023L167.638 52C167.5 52.5114 167.155 52.8295 166.556 52.8295C165.958 52.8295 165.613 52.5114 165.475 52L165.003 52.1023C165.141 52.8409 165.739 53.4091 166.556 53.4091Z" fill="url(#paint22_linear)"/>
<path d="M164.002 60.1477H164.565L168.547 55.0909V60.1477H169.111V54.3523H168.547L164.565 59.4091V54.3523H164.002V60.1477ZM166.556 53.4091C167.373 53.4091 167.972 52.8409 168.11 52.1023L167.638 52C167.5 52.5114 167.155 52.8295 166.556 52.8295C165.958 52.8295 165.613 52.5114 165.475 52L165.003 52.1023C165.141 52.8409 165.739 53.4091 166.556 53.4091Z" fill="black"/>
<path d="M171.25 60.1477H171.814V57.4318H175.715V60.1477H176.279V54.3523H175.715V56.9318H171.814V54.3523H171.25V60.1477Z" fill="url(#paint23_linear)"/>
<path d="M171.25 60.1477H171.814V57.4318H175.715V60.1477H176.279V54.3523H175.715V56.9318H171.814V54.3523H171.25V60.1477Z" fill="black"/>
<path d="M180.204 60.2841C181.32 60.2841 182.045 59.7386 182.448 59.1818V60.1477H183V56.5341C183 55.8182 182.793 55.2841 182.402 54.8977C181.976 54.4773 181.343 54.2614 180.549 54.2614C179.743 54.2614 179.11 54.4659 178.466 54.7614L178.673 55.25C179.214 54.9773 179.801 54.7841 180.514 54.7841C181.723 54.7841 182.448 55.3864 182.448 56.5568V56.8068C181.884 56.6591 181.32 56.5568 180.503 56.5568C178.984 56.5568 177.937 57.2386 177.937 58.4432C177.937 59.6705 178.995 60.2841 180.204 60.2841ZM180.238 59.7614C179.225 59.7614 178.547 59.2727 178.547 58.4318C178.547 57.6023 179.225 57.0568 180.468 57.0568C181.308 57.0568 181.964 57.1932 182.459 57.3182V57.9773C182.459 59.0341 181.435 59.7614 180.238 59.7614Z" fill="url(#paint24_linear)"/>
<path d="M180.204 60.2841C181.32 60.2841 182.045 59.7386 182.448 59.1818V60.1477H183V56.5341C183 55.8182 182.793 55.2841 182.402 54.8977C181.976 54.4773 181.343 54.2614 180.549 54.2614C179.743 54.2614 179.11 54.4659 178.466 54.7614L178.673 55.25C179.214 54.9773 179.801 54.7841 180.514 54.7841C181.723 54.7841 182.448 55.3864 182.448 56.5568V56.8068C181.884 56.6591 181.32 56.5568 180.503 56.5568C178.984 56.5568 177.937 57.2386 177.937 58.4432C177.937 59.6705 178.995 60.2841 180.204 60.2841ZM180.238 59.7614C179.225 59.7614 178.547 59.2727 178.547 58.4318C178.547 57.6023 179.225 57.0568 180.468 57.0568C181.308 57.0568 181.964 57.1932 182.459 57.3182V57.9773C182.459 59.0341 181.435 59.7614 180.238 59.7614Z" fill="black"/>
<defs>
<linearGradient id="paint0_linear" x1="92" y1="52" x2="92" y2="62" gradientUnits="userSpaceOnUse">
<stop stop-color="#99B55E"/>
<stop offset="1" stop-color="#829852"/>
</linearGradient>
<linearGradient id="paint1_linear" x1="92" y1="52" x2="92" y2="62" gradientUnits="userSpaceOnUse">
<stop stop-color="#99B55E"/>
<stop offset="1" stop-color="#829852"/>
</linearGradient>
<linearGradient id="paint2_linear" x1="92" y1="52" x2="92" y2="62" gradientUnits="userSpaceOnUse">
<stop stop-color="#99B55E"/>
<stop offset="1" stop-color="#829852"/>
</linearGradient>
<linearGradient id="paint3_linear" x1="92" y1="52" x2="92" y2="62" gradientUnits="userSpaceOnUse">
<stop stop-color="#99B55E"/>
<stop offset="1" stop-color="#829852"/>
</linearGradient>
<linearGradient id="paint4_linear" x1="92" y1="52" x2="92" y2="62" gradientUnits="userSpaceOnUse">
<stop stop-color="#99B55E"/>
<stop offset="1" stop-color="#829852"/>
</linearGradient>
<linearGradient id="paint5_linear" x1="92" y1="52" x2="92" y2="62" gradientUnits="userSpaceOnUse">
<stop stop-color="#99B55E"/>
<stop offset="1" stop-color="#829852"/>
</linearGradient>
<linearGradient id="paint6_linear" x1="92" y1="52" x2="92" y2="62" gradientUnits="userSpaceOnUse">
<stop stop-color="#99B55E"/>
<stop offset="1" stop-color="#829852"/>
</linearGradient>
<linearGradient id="paint7_linear" x1="92" y1="52" x2="92" y2="62" gradientUnits="userSpaceOnUse">
<stop stop-color="#99B55E"/>
<stop offset="1" stop-color="#829852"/>
</linearGradient>
<linearGradient id="paint8_linear" x1="92" y1="52" x2="92" y2="62" gradientUnits="userSpaceOnUse">
<stop stop-color="#99B55E"/>
<stop offset="1" stop-color="#829852"/>
</linearGradient>
<linearGradient id="paint9_linear" x1="92" y1="52" x2="92" y2="62" gradientUnits="userSpaceOnUse">
<stop stop-color="#99B55E"/>
<stop offset="1" stop-color="#829852"/>
</linearGradient>
<linearGradient id="paint10_linear" x1="92" y1="52" x2="92" y2="62" gradientUnits="userSpaceOnUse">
<stop stop-color="#99B55E"/>
<stop offset="1" stop-color="#829852"/>
</linearGradient>
<linearGradient id="paint11_linear" x1="92" y1="52" x2="92" y2="62" gradientUnits="userSpaceOnUse">
<stop stop-color="#99B55E"/>
<stop offset="1" stop-color="#829852"/>
</linearGradient>
<linearGradient id="paint12_linear" x1="92" y1="52" x2="92" y2="62" gradientUnits="userSpaceOnUse">
<stop stop-color="#99B55E"/>
<stop offset="1" stop-color="#829852"/>
</linearGradient>
<linearGradient id="paint13_linear" x1="92" y1="52" x2="92" y2="62" gradientUnits="userSpaceOnUse">
<stop stop-color="#99B55E"/>
<stop offset="1" stop-color="#829852"/>
</linearGradient>
<linearGradient id="paint14_linear" x1="92" y1="52" x2="92" y2="62" gradientUnits="userSpaceOnUse">
<stop stop-color="#99B55E"/>
<stop offset="1" stop-color="#829852"/>
</linearGradient>
<linearGradient id="paint15_linear" x1="92" y1="52" x2="92" y2="62" gradientUnits="userSpaceOnUse">
<stop stop-color="#99B55E"/>
<stop offset="1" stop-color="#829852"/>
</linearGradient>
<linearGradient id="paint16_linear" x1="92" y1="52" x2="92" y2="62" gradientUnits="userSpaceOnUse">
<stop stop-color="#99B55E"/>
<stop offset="1" stop-color="#829852"/>
</linearGradient>
<linearGradient id="paint17_linear" x1="92" y1="52" x2="92" y2="62" gradientUnits="userSpaceOnUse">
<stop stop-color="#99B55E"/>
<stop offset="1" stop-color="#829852"/>
</linearGradient>
<linearGradient id="paint18_linear" x1="92" y1="52" x2="92" y2="62" gradientUnits="userSpaceOnUse">
<stop stop-color="#99B55E"/>
<stop offset="1" stop-color="#829852"/>
</linearGradient>
<linearGradient id="paint19_linear" x1="92" y1="52" x2="92" y2="62" gradientUnits="userSpaceOnUse">
<stop stop-color="#99B55E"/>
<stop offset="1" stop-color="#829852"/>
</linearGradient>
<linearGradient id="paint20_linear" x1="92" y1="52" x2="92" y2="62" gradientUnits="userSpaceOnUse">
<stop stop-color="#99B55E"/>
<stop offset="1" stop-color="#829852"/>
</linearGradient>
<linearGradient id="paint21_linear" x1="92" y1="52" x2="92" y2="62" gradientUnits="userSpaceOnUse">
<stop stop-color="#99B55E"/>
<stop offset="1" stop-color="#829852"/>
</linearGradient>
<linearGradient id="paint22_linear" x1="92" y1="52" x2="92" y2="62" gradientUnits="userSpaceOnUse">
<stop stop-color="#99B55E"/>
<stop offset="1" stop-color="#829852"/>
</linearGradient>
<linearGradient id="paint23_linear" x1="92" y1="52" x2="92" y2="62" gradientUnits="userSpaceOnUse">
<stop stop-color="#99B55E"/>
<stop offset="1" stop-color="#829852"/>
</linearGradient>
<linearGradient id="paint24_linear" x1="92" y1="52" x2="92" y2="62" gradientUnits="userSpaceOnUse">
<stop stop-color="#99B55E"/>
<stop offset="1" stop-color="#829852"/>
</linearGradient>
</defs>
</svg>
