<svg width="48" height="48" viewBox="0 0 48 48" fill="none" xmlns="http://www.w3.org/2000/svg">
<rect x="0.75" y="0.75" width="46.5" height="46.5" rx="23.25" stroke="#AEBE89" stroke-width="1.5"/>
<path fill-rule="evenodd" clip-rule="evenodd" d="M33.4038 25.641C34.0286 20.4222 33.1036 17.1275 31.4349 15.6373L31.4358 15.6364C28.7425 13.0915 19.6469 12.7148 16.4248 15.7507C14.9778 17.2357 14.4681 19.4152 14.4123 22.1133C14.3564 24.8124 14.2901 29.8684 19.0386 31.24H19.043L19.0386 33.3346C19.0386 33.3346 19.0063 34.1832 19.5527 34.3537C20.1411 34.5429 20.4262 34.2046 22.0805 32.241L22.4039 31.8573C25.6539 32.137 28.1499 31.4963 28.4336 31.4028C28.4922 31.3833 28.5751 31.3616 28.6781 31.3348L28.6782 31.3348C29.7284 31.061 32.857 30.2455 33.4038 25.641ZM22.7242 30.3836C22.7242 30.3836 20.6671 32.9285 20.0274 33.5892C19.818 33.8039 19.5885 33.784 19.5919 33.358C19.5919 33.0783 19.6077 29.8805 19.6077 29.8805C15.7201 28.7751 15.8079 24.7227 15.8578 22.4176V22.4175L15.8578 22.4175C15.8595 22.3355 15.8613 22.2557 15.8628 22.1783C15.9064 19.9252 16.3218 18.08 17.5471 16.8374C20.3739 14.2077 28.348 14.7956 30.3798 16.6902C32.6406 18.6787 32.1111 23.9709 32.0017 25.0638L32.0017 25.064L32.0017 25.0644V25.0645C31.9909 25.1719 31.9842 25.2386 31.9847 25.2574C31.525 29.0575 29.0397 29.6529 28.1452 29.8672L28.1451 29.8672L28.1448 29.8673L28.1446 29.8673C28.0459 29.891 27.9667 29.91 27.9117 29.9281C27.6752 30.006 25.4803 30.5663 22.7242 30.3836ZM23.8623 17.3319C23.5263 17.3319 23.5263 17.8514 23.8623 17.8558C26.4691 17.8757 28.616 19.6785 28.6396 22.9854C28.6396 23.3343 29.1545 23.33 29.1501 22.981H29.1493C29.1213 19.4178 26.7772 17.3518 23.8623 17.3319ZM27.8019 22.4493C27.7976 22.7982 27.2835 22.7818 27.2914 22.4372C27.3315 20.7166 26.2834 19.3693 24.2936 19.2195C23.9584 19.1952 23.9933 18.6713 24.3293 18.6956C26.6238 18.8662 27.8447 20.4845 27.8019 22.4493ZM26.7413 24.6721C26.3102 24.4245 25.8712 24.5786 25.6897 24.8219L25.31 25.3094C25.1171 25.5571 24.7567 25.5242 24.7567 25.5242C22.1263 24.834 21.4229 22.103 21.4229 22.103C21.4229 22.103 21.3906 21.7332 21.6315 21.5349L22.1062 21.1453C22.3436 20.9582 22.4937 20.508 22.252 20.0655C21.765 19.1926 21.3986 18.7509 21.1532 18.455C21.0731 18.3585 21.0059 18.2775 20.9516 18.2021C20.7195 17.9137 20.3704 17.8488 20.0073 18.0436H19.9995C19.2445 18.4818 18.4181 19.3018 18.6825 20.146C18.7607 20.3004 18.8503 20.5133 18.9588 20.771C19.4758 21.9994 20.421 24.2455 22.6054 26.0177C23.8473 27.0317 25.8127 28.0708 26.647 28.3106L26.6549 28.3228C27.477 28.5946 28.2764 27.7426 28.7032 26.9711V26.965C28.8926 26.5918 28.8297 26.2385 28.5531 26.0073C28.0626 25.5328 27.3225 25.0089 26.7413 24.6721ZM25.9782 22.0042C25.9345 21.1114 25.5278 20.6767 24.6892 20.6282C24.3497 20.6083 24.3811 20.0844 24.7171 20.1044C25.8202 20.165 26.4329 20.8144 26.4887 21.9799C26.5044 22.3289 25.9939 22.3531 25.9782 22.0042Z" fill="#AEBE89"/>
</svg>
